# xmcd
#
# Track frame offsets:
#	150
#	16099
#	29252
#	51826
#	74558
#	97560
#
# Disc length: 1563 seconds
# Revision: 0
# Processed by: cddbd v1.5.2PL0 Copyright (c) Steve Scherf et al.
# Submitted via: dBpowerAMP V12.0
#
DISCID=3f061906
DTITLE=Creek of Man'Side - Creek of Man'Side
DYEAR=1999
DGENRE=Country Rock
TTITLE0=Reflections
TTITLE1=Cost
TTITLE2=Not The Needle
TTITLE3=Creek of Man'Side
TTITLE4=Slipped Away
TTITLE5=Trickle
EXTD=
EXTT0=
EXTT1=
EXTT2=
EXTT3=
EXTT4=
EXTT5=
PLAYORDER=
